<svg width="60" height="60" viewBox="0 0 60 60" fill="none" xmlns="http://www.w3.org/2000/svg">
<circle cx="30" cy="30" r="30" fill="black" fill-opacity="0.6"/>
<path d="M4.74236 17.9148C2.16557 23.3002 1.37757 29.3683 2.4934 35.2332C3.60922 41.0982 6.57045 46.4529 10.9448 50.5159C15.3192 54.5788 20.8777 57.1372 26.8089 57.8176C32.7402 58.498 38.7336 57.2647 43.9144 54.2979C49.0952 51.3311 53.1921 46.786 55.607 41.3261C58.022 35.8662 58.6285 29.7773 57.3382 23.9483C56.0478 18.1193 52.9282 12.8553 48.4345 8.92466C43.9408 4.99408 38.3084 2.6027 32.3595 2.0996" stroke="#FF8D30" stroke-width="4" stroke-linecap="round"/>
<path d="M29.504 28.032C29.504 29.536 28.936 30.776 27.8 31.752C26.68 32.728 25.24 33.216 23.48 33.216C21.736 33.216 20.288 32.736 19.136 31.776C18 30.816 17.432 29.6 17.432 28.128C17.432 26.448 18.224 25.096 19.808 24.072C18.624 23.176 18.032 22.008 18.032 20.568C18.032 19.144 18.552 18.008 19.592 17.16C20.632 16.312 21.92 15.888 23.456 15.888C24.992 15.888 26.28 16.32 27.32 17.184C28.36 18.032 28.88 19.128 28.88 20.472C28.88 21.848 28.288 22.992 27.104 23.904C28.704 24.96 29.504 26.336 29.504 28.032ZM25.592 20.544C25.592 20.032 25.384 19.608 24.968 19.272C24.568 18.936 24.072 18.768 23.48 18.768C22.872 18.768 22.36 18.936 21.944 19.272C21.544 19.608 21.344 20.032 21.344 20.544C21.344 21.072 21.552 21.52 21.968 21.888C22.384 22.24 22.904 22.48 23.528 22.608C24.136 22.464 24.632 22.208 25.016 21.84C25.4 21.472 25.592 21.04 25.592 20.544ZM26.168 28.032C26.168 27.392 25.904 26.864 25.376 26.448C24.864 26.016 24.208 25.712 23.408 25.536C22.624 25.696 21.984 26 21.488 26.448C21.008 26.88 20.768 27.408 20.768 28.032C20.768 28.672 21.024 29.208 21.536 29.64C22.064 30.072 22.712 30.288 23.48 30.288C24.248 30.288 24.888 30.072 25.4 29.64C25.912 29.192 26.168 28.656 26.168 28.032ZM38.6489 21.192C38.6489 19.448 37.9129 18.576 36.4409 18.576C34.9689 18.576 34.2329 19.448 34.2329 21.192V27.96C34.2329 28.664 34.4249 29.224 34.8089 29.64C35.1929 30.056 35.7369 30.264 36.4409 30.264C37.1449 30.264 37.6889 30.056 38.0729 29.64C38.4569 29.224 38.6489 28.664 38.6489 27.96V21.192ZM32.2889 17.256C33.2169 16.184 34.6009 15.648 36.4409 15.648C38.2809 15.648 39.6649 16.184 40.5929 17.256C41.5209 18.312 41.9849 19.68 41.9849 21.36V27.96C41.9849 29.48 41.4889 30.736 40.4969 31.728C39.5209 32.72 38.1689 33.216 36.4409 33.216C34.7129 33.216 33.3529 32.72 32.3609 31.728C31.3849 30.736 30.8969 29.48 30.8969 27.96V21.36C30.8969 19.68 31.3609 18.312 32.2889 17.256Z" fill="white"/>
<path d="M18.036 48.684C18.036 49.944 18.568 50.112 18.918 50.112C19.198 50.112 19.422 49.888 19.422 49.608C19.422 49.496 19.366 49.398 19.324 49.342C19.156 49.174 19.128 48.992 19.128 48.684V40.396C19.128 40.088 18.89 39.85 18.582 39.85C18.274 39.85 18.036 40.102 18.036 40.396V48.684ZM23.4335 49.146C22.4255 49.146 21.9075 48.642 21.9075 47.858V47.032C22.3975 47.116 22.9155 47.158 23.3355 47.158C25.0015 47.158 25.7015 46.374 25.7015 45.086C25.7015 43.7 24.9315 42.804 23.3775 42.804C21.7115 42.804 20.8155 43.826 20.8155 45.17V47.788C20.8155 49.104 21.7255 50.112 23.3075 50.112C24.0635 50.112 25.5755 49.888 25.5755 49.202C25.5755 48.95 25.3655 48.712 25.0855 48.712C24.9875 48.712 24.9175 48.74 24.8895 48.754C24.3995 48.978 24.0215 49.146 23.4335 49.146ZM24.6235 45.086C24.6235 45.66 24.4415 46.234 23.3775 46.234C23.0975 46.234 22.4255 46.206 21.9075 46.136V45.072C21.9075 44.288 22.4395 43.798 23.3495 43.798C24.1615 43.798 24.6235 44.176 24.6235 45.086ZM31.9255 43.532C32.0235 43.168 31.7435 42.846 31.4075 42.846C31.1975 42.846 30.9875 43 30.9175 43.21L29.3075 48.488L27.6695 43.21C27.5855 42.972 27.3895 42.846 27.1795 42.846C26.8575 42.846 26.5355 43.154 26.6475 43.49L28.5935 49.468C28.7475 49.916 28.9295 50.112 29.3075 50.112C29.6715 50.112 29.8675 49.916 30.0215 49.454L31.9255 43.532ZM35.4785 49.146C34.4705 49.146 33.9525 48.642 33.9525 47.858V47.032C34.4425 47.116 34.9605 47.158 35.3805 47.158C37.0465 47.158 37.7465 46.374 37.7465 45.086C37.7465 43.7 36.9765 42.804 35.4225 42.804C33.7565 42.804 32.8605 43.826 32.8605 45.17V47.788C32.8605 49.104 33.7705 50.112 35.3525 50.112C36.1085 50.112 37.6205 49.888 37.6205 49.202C37.6205 48.95 37.4105 48.712 37.1305 48.712C37.0325 48.712 36.9625 48.74 36.9345 48.754C36.4445 48.978 36.0665 49.146 35.4785 49.146ZM36.6685 45.086C36.6685 45.66 36.4865 46.234 35.4225 46.234C35.1425 46.234 34.4705 46.206 33.9525 46.136V45.072C33.9525 44.288 34.4845 43.798 35.3945 43.798C36.2065 43.798 36.6685 44.176 36.6685 45.086ZM39.159 48.684C39.159 49.944 39.691 50.112 40.041 50.112C40.321 50.112 40.545 49.888 40.545 49.608C40.545 49.496 40.489 49.398 40.447 49.342C40.279 49.174 40.251 48.992 40.251 48.684V40.396C40.251 40.088 40.013 39.85 39.705 39.85C39.397 39.85 39.159 40.102 39.159 40.396V48.684Z" fill="white"/>
<line opacity="0.3" x1="15" y1="36.5" x2="45" y2="36.5" stroke="white"/>
</svg>
