<svg width="60" height="60" viewBox="0 0 60 60" fill="none" xmlns="http://www.w3.org/2000/svg">
<circle cx="30" cy="30" r="30" fill="black" fill-opacity="0.6"/>
<path d="M22.5503 3.00922C15.7757 4.87906 9.95203 9.22814 6.23551 15.1929C2.51899 21.1577 1.18146 28.302 2.48848 35.2073C3.7955 42.1126 7.65149 48.2739 13.2908 52.4678C18.9302 56.6618 25.9405 58.5817 32.9298 57.8463C39.9191 57.1109 46.3763 53.7741 51.0193 48.4983C55.6623 43.2226 58.1516 36.3937 57.9929 29.3676C57.8341 22.3415 55.039 15.632 50.1625 10.5713C45.2859 5.51057 38.6846 2.46876 31.6692 2.0498" stroke="#FF8D30" stroke-width="4" stroke-linecap="round"/>
<path d="M22.904 30.312C23.944 30.328 24.656 30.008 25.04 29.352C25.44 28.68 25.688 27.68 25.784 26.352C24.984 26.832 24.12 27.072 23.192 27.072C21.64 27.072 20.344 26.6 19.304 25.656C18.264 24.696 17.744 23.344 17.744 21.6C17.744 19.952 18.24 18.584 19.232 17.496C20.224 16.408 21.64 15.864 23.48 15.864C24.552 15.864 25.472 16.064 26.24 16.464C27.008 16.864 27.6 17.448 28.016 18.216C28.448 18.984 28.752 19.848 28.928 20.808C29.12 21.768 29.216 22.872 29.216 24.12C29.216 27.08 28.712 29.336 27.704 30.888C26.712 32.44 25.208 33.216 23.192 33.216C22.856 33.216 22.488 33.192 22.088 33.144C21.704 33.112 21.248 33.04 20.72 32.928C20.208 32.8 19.768 32.6 19.4 32.328C19.048 32.056 18.848 31.728 18.8 31.344C18.752 30.96 18.864 30.616 19.136 30.312C19.424 30.008 19.808 29.856 20.288 29.856C20.528 29.856 20.92 29.928 21.464 30.072C22.024 30.216 22.504 30.296 22.904 30.312ZM25.856 23.256V22.968C25.856 20.264 25.024 18.912 23.36 18.912C22.56 18.912 21.976 19.168 21.608 19.68C21.256 20.176 21.08 20.808 21.08 21.576C21.08 23.24 21.864 24.072 23.432 24.072C24.456 24.072 25.264 23.8 25.856 23.256ZM35.8649 30.312C36.9049 30.328 37.6169 30.008 38.0009 29.352C38.4009 28.68 38.6489 27.68 38.7449 26.352C37.9449 26.832 37.0809 27.072 36.1529 27.072C34.6009 27.072 33.3049 26.6 32.2649 25.656C31.2249 24.696 30.7049 23.344 30.7049 21.6C30.7049 19.952 31.2009 18.584 32.1929 17.496C33.1849 16.408 34.6009 15.864 36.4409 15.864C37.5129 15.864 38.4329 16.064 39.2009 16.464C39.9689 16.864 40.5609 17.448 40.9769 18.216C41.4089 18.984 41.7129 19.848 41.8889 20.808C42.0809 21.768 42.1769 22.872 42.1769 24.12C42.1769 27.08 41.6729 29.336 40.6649 30.888C39.6729 32.44 38.1689 33.216 36.1529 33.216C35.8169 33.216 35.4489 33.192 35.0489 33.144C34.6649 33.112 34.2089 33.04 33.6809 32.928C33.1689 32.8 32.7289 32.6 32.3609 32.328C32.0089 32.056 31.8089 31.728 31.7609 31.344C31.7129 30.96 31.8249 30.616 32.0969 30.312C32.3849 30.008 32.7689 29.856 33.2489 29.856C33.4889 29.856 33.8809 29.928 34.4249 30.072C34.9849 30.216 35.4649 30.296 35.8649 30.312ZM38.8169 23.256V22.968C38.8169 20.264 37.9849 18.912 36.3209 18.912C35.5209 18.912 34.9369 19.168 34.5689 19.68C34.2169 20.176 34.0409 20.808 34.0409 21.576C34.0409 23.24 34.8249 24.072 36.3929 24.072C37.4169 24.072 38.2249 23.8 38.8169 23.256Z" fill="white"/>
<path d="M18.036 48.684V40.396C18.036 40.2467 18.0873 40.1207 18.19 40.018C18.302 39.906 18.4327 39.85 18.582 39.85C18.7407 39.85 18.8713 39.906 18.974 40.018C19.0767 40.1207 19.128 40.2467 19.128 40.396V48.684C19.128 48.992 19.1933 49.2113 19.324 49.342C19.3893 49.426 19.422 49.5147 19.422 49.608C19.422 49.748 19.3707 49.8693 19.268 49.972C19.1747 50.0653 19.058 50.112 18.918 50.112C18.33 50.112 18.036 49.636 18.036 48.684ZM23.4335 49.146C23.8349 49.146 24.3202 49.0153 24.8895 48.754C24.9455 48.726 25.0109 48.712 25.0855 48.712C25.2255 48.712 25.3422 48.7633 25.4355 48.866C25.5289 48.9593 25.5755 49.0713 25.5755 49.202C25.5755 49.51 25.3235 49.7387 24.8195 49.888C24.3155 50.0373 23.8115 50.112 23.3075 50.112C22.5329 50.112 21.9215 49.8973 21.4735 49.468C21.0349 49.0293 20.8155 48.4693 20.8155 47.788V45.17C20.8155 44.47 21.0395 43.9007 21.4875 43.462C21.9355 43.0233 22.5655 42.804 23.3775 42.804C24.1335 42.804 24.7075 43.0093 25.0995 43.42C25.5009 43.8213 25.7015 44.3767 25.7015 45.086C25.7015 46.4673 24.9129 47.158 23.3355 47.158C22.8782 47.158 22.4022 47.116 21.9075 47.032V47.858C21.9075 48.2593 22.0382 48.5767 22.2995 48.81C22.5609 49.034 22.9389 49.146 23.4335 49.146ZM24.6235 45.086C24.6235 44.2273 24.1989 43.798 23.3495 43.798C22.9015 43.798 22.5469 43.9147 22.2855 44.148C22.0335 44.372 21.9075 44.68 21.9075 45.072V46.136C22.3929 46.2013 22.8829 46.234 23.3775 46.234C23.8629 46.234 24.1895 46.1313 24.3575 45.926C24.5349 45.7113 24.6235 45.4313 24.6235 45.086ZM31.9255 43.532L30.0215 49.454C29.8722 49.8927 29.6342 50.112 29.3075 50.112C29.1209 50.112 28.9715 50.0653 28.8595 49.972C28.7569 49.8693 28.6682 49.7013 28.5935 49.468L26.6475 43.49C26.5915 43.3313 26.6242 43.1867 26.7455 43.056C26.8669 42.916 27.0115 42.846 27.1795 42.846C27.4222 42.846 27.5855 42.9673 27.6695 43.21L29.3075 48.488L30.9175 43.21C31.0015 42.9673 31.1649 42.846 31.4075 42.846C31.5755 42.846 31.7155 42.916 31.8275 43.056C31.9395 43.196 31.9722 43.3547 31.9255 43.532ZM35.4785 49.146C35.8798 49.146 36.3651 49.0153 36.9345 48.754C36.9905 48.726 37.0558 48.712 37.1305 48.712C37.2705 48.712 37.3871 48.7633 37.4805 48.866C37.5738 48.9593 37.6205 49.0713 37.6205 49.202C37.6205 49.51 37.3685 49.7387 36.8645 49.888C36.3605 50.0373 35.8565 50.112 35.3525 50.112C34.5778 50.112 33.9665 49.8973 33.5185 49.468C33.0798 49.0293 32.8605 48.4693 32.8605 47.788V45.17C32.8605 44.47 33.0845 43.9007 33.5325 43.462C33.9805 43.0233 34.6105 42.804 35.4225 42.804C36.1785 42.804 36.7525 43.0093 37.1445 43.42C37.5458 43.8213 37.7465 44.3767 37.7465 45.086C37.7465 46.4673 36.9578 47.158 35.3805 47.158C34.9231 47.158 34.4471 47.116 33.9525 47.032V47.858C33.9525 48.2593 34.0831 48.5767 34.3445 48.81C34.6058 49.034 34.9838 49.146 35.4785 49.146ZM36.6685 45.086C36.6685 44.2273 36.2438 43.798 35.3945 43.798C34.9465 43.798 34.5918 43.9147 34.3305 44.148C34.0785 44.372 33.9525 44.68 33.9525 45.072V46.136C34.4378 46.2013 34.9278 46.234 35.4225 46.234C35.9078 46.234 36.2345 46.1313 36.4025 45.926C36.5798 45.7113 36.6685 45.4313 36.6685 45.086ZM39.159 48.684V40.396C39.159 40.2467 39.2104 40.1207 39.313 40.018C39.425 39.906 39.5557 39.85 39.705 39.85C39.8637 39.85 39.9944 39.906 40.097 40.018C40.1997 40.1207 40.251 40.2467 40.251 40.396V48.684C40.251 48.992 40.3164 49.2113 40.447 49.342C40.5124 49.426 40.545 49.5147 40.545 49.608C40.545 49.748 40.4937 49.8693 40.391 49.972C40.2977 50.0653 40.181 50.112 40.041 50.112C39.453 50.112 39.159 49.636 39.159 48.684Z" fill="white"/>
<line opacity="0.3" x1="15" y1="36.5" x2="45" y2="36.5" stroke="white"/>
</svg>
