<svg width="123" height="25" viewBox="0 0 123 25" fill="none" xmlns="http://www.w3.org/2000/svg">
<g clip-path="url(#clip0_1369_1039)">
<path d="M18.5347 2.1803C17.7301 2.36073 16.9218 2.542 16.6212 3.03873L14.2941 7.41228L1.79919 10.2144L1.29295 11.6118L10.8544 12.4647L9.23212 16.2509L5.60602 17.0641L4.69562 18.5521L7.31158 18.8201L7.60988 20.0371C7.74352 20.4685 8.21259 20.7565 8.61297 20.6667L9.82168 20.3956L11.2228 22.6492L12.1332 21.1611L11.2383 17.5101L13.8637 14.3536L18.8731 22.6468L19.8832 21.5656L16.8005 8.9887L19.6314 4.93144C19.9358 4.43387 19.7373 3.6238 19.5378 2.80994C19.439 2.40681 18.9351 2.09051 18.5347 2.1803Z" fill="#101D41"/>
</g>
<g clip-path="url(#clip1_1369_1039)">
<path opacity="0.15" d="M41.5011 15.5714C41.5011 15.1771 41.3546 14.8404 41.0618 14.5614C40.7689 14.2824 40.4156 14.1429 40.0017 14.1429C39.5878 14.1429 39.2344 14.2824 38.9416 14.5614C38.6487 14.8404 38.5023 15.1771 38.5023 15.5714C38.5023 15.9658 38.6487 16.3025 38.9416 16.5815C39.2344 16.8605 39.5878 17 40.0017 17C40.4156 17 40.7689 16.8605 41.0618 16.5815C41.3546 16.3025 41.5011 15.9658 41.5011 15.5714ZM53.4961 15.5714C53.4961 15.1771 53.3496 14.8404 53.0568 14.5614C52.7639 14.2824 52.4106 14.1429 51.9967 14.1429C51.5828 14.1429 51.2294 14.2824 50.9366 14.5614C50.6437 14.8404 50.4973 15.1771 50.4973 15.5714C50.4973 15.9658 50.6437 16.3025 50.9366 16.5815C51.2294 16.8605 51.5828 17 51.9967 17C52.4106 17 52.7639 16.8605 53.0568 16.5815C53.3496 16.3025 53.4961 15.9658 53.4961 15.5714ZM52.9572 11.1518L52.1138 6.86607C52.0748 6.69494 51.9869 6.55543 51.8503 6.44754C51.7136 6.33966 51.5555 6.28571 51.3758 6.28571H40.6225C40.4429 6.28571 40.2848 6.33966 40.1481 6.44754C40.0114 6.55543 39.9236 6.69494 39.8845 6.86607L39.0411 11.1518C39.0021 11.375 39.0568 11.5722 39.2051 11.7433C39.3535 11.9144 39.5448 12 39.7791 12H52.2192C52.4535 12 52.6449 11.9144 52.7932 11.7433C52.9416 11.5722 52.9963 11.375 52.9572 11.1518ZM50.3099 4.32143C50.3099 4.17262 50.2552 4.04613 50.1459 3.94196C50.0366 3.8378 49.9038 3.78571 49.7476 3.78571H42.2507C42.0946 3.78571 41.9618 3.8378 41.8525 3.94196C41.7431 4.04613 41.6885 4.17262 41.6885 4.32143C41.6885 4.47024 41.7431 4.59673 41.8525 4.70089C41.9618 4.80506 42.0946 4.85714 42.2507 4.85714H49.7476C49.9038 4.85714 50.0366 4.80506 50.1459 4.70089C50.2552 4.59673 50.3099 4.47024 50.3099 4.32143ZM54.9954 12.4129V19.1429H53.4961V20.5714C53.4961 20.9658 53.3496 21.3025 53.0568 21.5815C52.7639 21.8605 52.4106 22 51.9967 22C51.5828 22 51.2294 21.8605 50.9366 21.5815C50.6437 21.3025 50.4973 20.9658 50.4973 20.5714V19.1429H41.5011V20.5714C41.5011 20.9658 41.3546 21.3025 41.0618 21.5815C40.7689 21.8605 40.4156 22 40.0017 22C39.5878 22 39.2344 21.8605 38.9416 21.5815C38.6487 21.3025 38.5023 20.9658 38.5023 20.5714V19.1429H37.0029V12.4129C37.0029 11.5796 37.1005 10.75 37.2958 9.92411L38.5023 4.85714C38.5726 4.27679 38.9533 3.76711 39.6444 3.32812C40.3355 2.88914 41.2336 2.55804 42.3386 2.33482C43.4436 2.11161 44.6638 2 45.9992 2C47.3346 2 48.5548 2.11161 49.6598 2.33482C50.7648 2.55804 51.6628 2.88914 52.354 3.32812C53.0451 3.76711 53.4258 4.27679 53.4961 4.85714L54.726 9.92411C54.9056 10.683 54.9954 11.5126 54.9954 12.4129Z" fill="#1D2E5B"/>
</g>
<path opacity="0.15" d="M86.9453 21.875C86.0568 21.875 85.1883 21.6115 84.4496 21.1179C83.7109 20.6243 83.1351 19.9227 82.7951 19.1019C82.4551 18.2811 82.3661 17.3778 82.5394 16.5064C82.7128 15.635 83.1406 14.8346 83.7689 14.2064C84.3971 13.5781 85.1975 13.1503 86.0689 12.9769C86.9403 12.8036 87.8436 12.8926 88.6644 13.2326C89.4852 13.5726 90.1868 14.1484 90.6804 14.8871C91.174 15.6258 91.4375 16.4943 91.4375 17.3828C91.4362 18.5738 90.9625 19.7157 90.1203 20.5578C89.2782 21.4 88.1363 21.8737 86.9453 21.875ZM86.9453 14.4531C86.3659 14.4531 85.7995 14.6249 85.3177 14.9469C84.8359 15.2688 84.4604 15.7263 84.2386 16.2617C84.0169 16.797 83.9589 17.3861 84.0719 17.9544C84.185 18.5227 84.464 19.0447 84.8737 19.4544C85.2834 19.8641 85.8055 20.1432 86.3738 20.2562C86.9421 20.3692 87.5311 20.3112 88.0665 20.0895C88.6018 19.8678 89.0593 19.4922 89.3813 19.0105C89.7032 18.5287 89.875 17.9623 89.875 17.3828C89.8741 16.6061 89.5651 15.8614 89.0159 15.3122C88.4667 14.763 87.722 14.454 86.9453 14.4531Z" fill="#1D2E5B"/>
<path opacity="0.15" d="M74.0547 21.875C73.1662 21.875 72.2977 21.6115 71.559 21.1179C70.8202 20.6243 70.2445 19.9227 69.9044 19.1019C69.5644 18.2811 69.4755 17.3778 69.6488 16.5064C69.8222 15.635 70.25 14.8346 70.8782 14.2064C71.5065 13.5781 72.3069 13.1503 73.1783 12.9769C74.0497 12.8036 74.9529 12.8926 75.7738 13.2326C76.5946 13.5726 77.2962 14.1484 77.7898 14.8871C78.2834 15.6258 78.5469 16.4943 78.5469 17.3828C78.5456 18.5738 78.0719 19.7157 77.2297 20.5578C76.3875 21.4 75.2457 21.8737 74.0547 21.875ZM74.0547 14.4531C73.4753 14.4531 72.9088 14.6249 72.427 14.9469C71.9453 15.2688 71.5698 15.7263 71.348 16.2617C71.1263 16.797 71.0683 17.3861 71.1813 17.9544C71.2943 18.5227 71.5734 19.0447 71.9831 19.4544C72.3928 19.8641 72.9148 20.1432 73.4831 20.2562C74.0514 20.3692 74.6405 20.3112 75.1758 20.0895C75.7112 19.8678 76.1687 19.4922 76.4906 19.0105C76.8126 18.5287 76.9844 17.9623 76.9844 17.3828C76.9835 16.6061 76.6745 15.8614 76.1253 15.3122C75.5761 14.763 74.8314 14.454 74.0547 14.4531Z" fill="#1D2E5B"/>
<path opacity="0.15" d="M83.625 6.25005C83.8308 6.25076 84.0347 6.21067 84.2249 6.1321C84.4151 6.05352 84.5879 5.93802 84.7332 5.79227C84.8785 5.64651 84.9934 5.47341 85.0714 5.28295C85.1494 5.09249 85.1889 4.88847 85.1875 4.68267C85.1898 4.4779 85.1512 4.27473 85.0741 4.08504C84.9969 3.89535 84.8827 3.72295 84.7381 3.57792C84.5935 3.43289 84.4215 3.31814 84.232 3.24038C84.0426 3.16262 83.8395 3.12341 83.6348 3.12505C83.4296 3.12441 83.2263 3.16419 83.0365 3.24212C82.8466 3.32005 82.674 3.4346 82.5285 3.57924C82.3829 3.72388 82.2673 3.89577 82.1882 4.0851C82.1091 4.27442 82.068 4.47748 82.0674 4.68267C82.0667 4.88786 82.1065 5.09116 82.1845 5.28098C82.2624 5.4708 82.3769 5.64341 82.5216 5.78895C82.6662 5.9345 82.8381 6.05013 83.0274 6.12924C83.2168 6.20836 83.4198 6.24941 83.625 6.25005Z" fill="#1D2E5B"/>
<path opacity="0.15" d="M85.9468 9.37504H83.8101C83.775 9.37505 83.7406 9.36563 83.7104 9.34776C83.6803 9.32989 83.6555 9.30423 83.6387 9.27348L82.0889 6.43315C81.9797 6.22207 81.8223 6.03967 81.6295 5.90071C81.4367 5.76175 81.2139 5.67014 80.9791 5.6333C80.7444 5.59645 80.5042 5.6154 80.2781 5.68862C80.052 5.76183 79.8463 5.88725 79.6777 6.05473L76.2666 9.49223C75.98 9.78473 75.8174 10.1765 75.8125 10.586C75.8125 11.4356 76.4277 11.7383 76.7158 11.9092C78.1074 12.711 79.0874 13.2974 79.625 13.6231C79.6536 13.6405 79.6772 13.6649 79.6936 13.6941C79.71 13.7233 79.7187 13.7561 79.7188 13.7896V17.1646C79.7188 17.585 80.042 17.9458 80.4624 17.9668C80.568 17.9719 80.6734 17.9555 80.7725 17.9187C80.8715 17.8818 80.962 17.8253 81.0386 17.7524C81.1151 17.6796 81.1761 17.5919 81.2178 17.4949C81.2595 17.3978 81.2811 17.2932 81.2813 17.1875V12.9883C81.2813 12.8643 81.2519 12.742 81.1953 12.6317C81.1388 12.5213 81.0568 12.426 80.9561 12.3536L79.1494 11.0542C79.1267 11.038 79.1078 11.0171 79.0939 10.993C79.0799 10.9688 79.0713 10.942 79.0687 10.9142C79.066 10.8864 79.0693 10.8584 79.0783 10.8321C79.0874 10.8057 79.1019 10.7815 79.1211 10.7613L81.1719 8.57426C81.1929 8.55176 81.219 8.53455 81.2479 8.52404C81.2768 8.51352 81.3079 8.51001 81.3384 8.51377C81.369 8.51753 81.3982 8.52846 81.4238 8.54568C81.4493 8.5629 81.4704 8.58591 81.4854 8.61284L82.5508 10.5357C82.6185 10.6576 82.7176 10.7591 82.8378 10.8298C82.958 10.9005 83.0949 10.9377 83.2344 10.9375H85.9688C86.0746 10.9377 86.1793 10.9163 86.2767 10.8747C86.374 10.8331 86.4618 10.7722 86.5349 10.6956C86.608 10.619 86.6647 10.5284 86.7017 10.4292C86.7387 10.3301 86.7551 10.2244 86.75 10.1187C86.7295 9.69829 86.3672 9.37504 85.9468 9.37504Z" fill="#1D2E5B"/>
<path opacity="0.15" d="M116.454 7C117.459 7 118.273 6.10457 118.273 5C118.273 3.89543 117.459 3 116.454 3C115.45 3 114.636 3.89543 114.636 5C114.636 6.10457 115.45 7 116.454 7Z" fill="#1D2E5B"/>
<path opacity="0.15" d="M115.343 11.969C115.552 12.311 115.851 12.5742 116.2 12.7227C116.55 12.8712 116.932 12.8978 117.296 12.799L120.31 11.97L119.871 10.03L116.857 10.859L115.603 8.79197C115.335 8.35053 114.919 8.04354 114.447 7.93797L110.95 7.16797C110.559 7.08162 110.153 7.13933 109.795 7.33217C109.436 7.52502 109.146 7.84229 108.968 8.23497L107.46 11.551L109.087 12.446L110.594 9.12897L112.382 9.52297L107.758 18H103.728V20H107.758C108.393 20 108.99 19.628 109.318 19.029L111.061 15.833L115.76 16.867L117.411 22.316L119.135 21.683L117.485 16.235C117.383 15.9005 117.203 15.6014 116.962 15.3679C116.722 15.1345 116.43 14.9748 116.116 14.905L113.353 14.298L114.964 11.344L115.343 11.969Z" fill="#1D2E5B"/>
<defs>
<clipPath id="clip0_1369_1039">
<rect width="23" height="22" fill="white" transform="translate(0 1)"/>
</clipPath>
<clipPath id="clip1_1369_1039">
<rect width="18" height="20" fill="white" transform="translate(37 2)"/>
</clipPath>
</defs>
</svg>
