<svg width="32" height="32" viewBox="0 0 32 32" fill="none" xmlns="http://www.w3.org/2000/svg">
<path d="M24.9461 23.7775C24.2083 23.761 23.4891 23.5431 22.8661 23.1475C22.2157 22.7079 21.6184 22.1945 21.0861 21.6175C20.6461 21.1775 19.9161 20.4375 19.6361 20.4375C19.3561 20.4375 19.1561 21.3575 19.1661 22.0075C19.1703 22.4562 19.0021 22.8894 18.6961 23.2175C18.3481 23.5018 17.9234 23.6758 17.4761 23.7175H15.5561C12.7965 23.6568 10.1541 22.59 8.12606 20.7175C4.44606 17.3475 1.28606 10.9075 1.15606 10.6275C1.03206 10.3936 0.980135 10.1282 1.00683 9.86481C1.03353 9.6014 1.13765 9.35181 1.30606 9.14753C1.6872 8.82967 2.16985 8.65933 2.66606 8.66753H6.74606H6.86606C7.20364 8.71678 7.52722 8.836 7.81606 9.01753C8.08788 9.1998 8.30552 9.45198 8.44606 9.74753C8.87724 10.6706 9.37175 11.5627 9.92606 12.4175C11.2361 14.4175 11.8161 14.8775 12.0261 14.9775C12.2597 14.0398 12.324 13.0679 12.2161 12.1075C12.2511 11.6701 12.179 11.2308 12.0061 10.8275C11.7865 10.6519 11.5169 10.5504 11.2361 10.5375L10.5061 9.84753C10.3661 9.18753 11.0961 8.61753 11.6061 8.39753C12.6238 8.07863 13.6916 7.94982 14.7561 8.01753H15.4661C16.1881 7.99873 16.9099 8.06587 17.6161 8.21753C19.3161 8.57753 19.2561 9.94753 19.1861 11.5275C19.1861 11.9875 19.1361 12.5275 19.1361 13.1475C19.1361 13.2975 19.1361 13.4575 19.1361 13.6275C19.0967 14.0629 19.1271 14.5017 19.2261 14.9275C20.0586 14.2311 20.7597 13.3912 21.2961 12.4475C21.875 11.5553 22.3832 10.6191 22.8161 9.64753C22.9479 9.34025 23.1739 9.08272 23.4614 8.91201C23.7489 8.7413 24.0832 8.6662 24.4161 8.69753H28.6961C28.8224 8.68547 28.9497 8.68547 29.0761 8.69753C30.0761 8.69753 30.6661 8.98753 30.9061 9.54753C31.1461 10.1075 31.0761 11.2075 28.5461 14.1575L27.5461 15.2875C27.0616 15.758 26.6443 16.293 26.3061 16.8775C26.6848 17.3081 27.1147 17.6909 27.5861 18.0175C28.7353 18.8835 29.7468 19.9186 30.5861 21.0875C30.7829 21.3148 30.9117 21.593 30.9576 21.8901C31.0036 22.1873 30.965 22.4914 30.8461 22.7675C30.6365 23.0734 30.3561 23.3241 30.0288 23.4982C29.7014 23.6723 29.3368 23.7647 28.9661 23.7675L25.1761 23.8175L24.9461 23.7775ZM19.6361 18.9375C20.5361 18.9375 21.3161 19.7275 22.1461 20.5575C22.5944 21.0471 23.0977 21.4833 23.6461 21.8575C24.0607 22.1333 24.5481 22.2795 25.0461 22.2775H25.1461L28.9461 22.2275C29.1335 22.2168 29.317 22.1692 29.4861 22.0875L29.3861 21.9275C28.6291 20.8959 27.7263 19.9797 26.7061 19.2075C25.5161 18.2075 24.9061 17.7375 24.8361 16.9675C24.7661 16.1975 25.3261 15.5275 26.4461 14.2575L27.4461 13.1475C28.2903 12.2864 28.9834 11.2891 29.4961 10.1975C29.2729 10.1843 29.0492 10.1843 28.8261 10.1975H24.4561C24.377 10.1799 24.2951 10.1799 24.2161 10.1975C23.7532 11.259 23.2012 12.2793 22.5661 13.2475C20.6761 16.0675 19.7861 16.4475 19.1561 16.4475C18.9607 16.4475 18.7684 16.3995 18.5961 16.3075C17.5961 15.7375 17.5961 14.4675 17.6561 13.5475C17.6561 13.3975 17.6561 13.2475 17.6561 13.1175C17.6561 12.4675 17.6561 11.9075 17.7061 11.4275C17.7861 9.74753 17.7061 9.73753 17.3261 9.64753C16.7138 9.52655 16.09 9.4729 15.4661 9.48753H14.7761C14.1411 9.47441 13.5061 9.50784 12.8761 9.58753C12.9715 9.65784 13.0558 9.74212 13.1261 9.83753C13.5385 10.4879 13.7442 11.2479 13.7161 12.0175C13.8461 13.6675 13.7761 15.8175 12.7161 16.3375C12.5284 16.4254 12.3233 16.4698 12.1161 16.4675C11.1861 16.4675 10.2661 15.5875 8.69606 13.2075C8.09358 12.2962 7.5556 11.3439 7.08606 10.3575L7.00606 10.2575C6.90508 10.2061 6.79736 10.169 6.68606 10.1475H2.68606H2.61606C3.20606 11.3675 6.00606 16.7675 9.13606 19.5975C10.8936 21.2122 13.1708 22.1451 15.5561 22.2275H17.4061C17.5004 22.2074 17.5914 22.1737 17.6761 22.1275C17.6761 22.1275 17.6761 22.1275 17.6761 22.0375C17.6761 21.7675 17.6761 19.4375 19.2561 19.0375C19.3784 18.9894 19.5059 18.9558 19.6361 18.9375Z" fill="#192144"/>
</svg>
