<svg width="28" height="22" viewBox="0 0 28 22" fill="none" xmlns="http://www.w3.org/2000/svg">
<path d="M18.275 10.5873L12.275 6.58733C12.1998 6.53724 12.1124 6.50847 12.0222 6.50407C11.932 6.49967 11.8422 6.5198 11.7625 6.56233C11.6826 6.60389 11.6158 6.66677 11.5694 6.74399C11.5231 6.82122 11.4991 6.90977 11.5 6.99983V14.9998C11.4991 15.0899 11.5231 15.1784 11.5694 15.2557C11.6158 15.3329 11.6826 15.3958 11.7625 15.4373C11.8361 15.4754 11.9172 15.4967 12 15.4998C12.0988 15.5016 12.1954 15.4709 12.275 15.4123L18.275 11.4123C18.3447 11.3684 18.4022 11.3075 18.442 11.2354C18.4818 11.1633 18.5027 11.0822 18.5027 10.9998C18.5027 10.9174 18.4818 10.8364 18.442 10.7642C18.4022 10.6921 18.3447 10.6312 18.275 10.5873V10.5873ZM12.5 14.0623V7.93733L17.1 10.9998L12.5 14.0623ZM26.8125 3.84983C26.7092 3.46871 26.5189 3.11677 26.2564 2.82177C25.9939 2.52676 25.6665 2.29674 25.3 2.14983C21.075 0.524827 14.2875 0.549827 14 0.549827C13.7125 0.549827 6.925 0.524827 2.7 2.14983C2.33348 2.29674 2.00609 2.52676 1.74362 2.82177C1.48115 3.11677 1.29078 3.46871 1.1875 3.84983C0.875 5.06233 0.5 7.28733 0.5 10.9998C0.5 14.7123 0.875 16.9373 1.1875 18.1498C1.29078 18.5309 1.48115 18.8829 1.74362 19.1779C2.00609 19.4729 2.33348 19.7029 2.7 19.8498C6.925 21.4748 13.7125 21.4498 14 21.4498H14.0875C14.95 21.4498 21.2875 21.3998 25.3 19.8498C25.6665 19.7029 25.9939 19.4729 26.2564 19.1779C26.5189 18.8829 26.7092 18.5309 26.8125 18.1498C27.125 16.9373 27.5 14.7123 27.5 10.9998C27.5 7.28733 27.125 5.06233 26.8125 3.84983V3.84983ZM25.8375 17.8998C25.7774 18.1274 25.6647 18.3376 25.5083 18.5135C25.352 18.6894 25.1564 18.826 24.9375 18.9123C20.8875 20.4748 14.075 20.4498 14 20.4498C13.925 20.4498 7.1125 20.4748 3.0625 18.9123C2.84358 18.826 2.64804 18.6894 2.49169 18.5135C2.33534 18.3376 2.22257 18.1274 2.1625 17.8998C1.8625 16.7373 1.5 14.5998 1.5 10.9998C1.5 7.39983 1.8625 5.26233 2.1625 4.09983C2.22257 3.87229 2.33534 3.66208 2.49169 3.48619C2.64804 3.3103 2.84358 3.17366 3.0625 3.08733C7.1125 1.52483 13.925 1.54983 14 1.54983C14.075 1.54983 20.8875 1.52483 24.9375 3.08733C25.1564 3.17366 25.352 3.3103 25.5083 3.48619C25.6647 3.66208 25.7774 3.87229 25.8375 4.09983C26.1375 5.26233 26.5 7.39983 26.5 10.9998C26.5 14.5998 26.1375 16.7373 25.8375 17.8998Z" fill="black"/>
</svg>
